<svg width="200" height="200" viewBox="0 0 200 200" fill="none" xmlns="http://www.w3.org/2000/svg">
<g transform="translate(-3.604,-2.710) scale(1.03226)">
<line x1="121" y1="177" x2="121" y2="22" stroke="#3AB817" stroke-width="20" stroke-linecap="round"/><line x1="84" y1="177" x2="84" y2="66" stroke="#3AB817" stroke-width="20" stroke-linecap="round"/><path d="M152.116 136.657L152.116 138.413C152.116 143.119 150.61 147.701 147.819 151.489C146.036 153.909 143.776 155.939 141.18 157.453L136.552 160.153C134.265 161.487 131.872 162.629 129.396 163.568L127.184 164.407C121.519 166.556 115.511 167.657 109.452 167.657L102.122 167.657C99.4553 167.657 96.793 167.444 94.1603 167.019L82.6155 165.157L79.3541 164.458C72.2794 162.942 65.618 159.909 59.8299 155.568L56.9019 153.372C55.3833 152.233 54.0023 150.921 52.787 149.462C49.1226 145.065 47.1158 139.523 47.1158 133.799L47.1158 133.532C47.1158 131.292 47.4145 129.062 48.0038 126.901L49.8159 120.257C51.0006 115.912 53.1433 111.888 56.0866 108.48C59.3865 104.66 63.5929 101.728 68.3201 99.9556L70.4688 99.1498C74.8643 97.5015 79.5204 96.6572 84.2147 96.6572L88.9276 96.6572C92.0462 96.6572 95.1579 96.949 98.2222 97.5287L107.509 99.2858C110.574 99.8655 113.685 100.157 116.804 100.157L120.485 100.157C125.523 100.157 130.514 99.17 135.173 97.2514L139.056 95.6527C143.02 94.0202 146.463 91.3347 149.011 87.8868C152.002 83.8407 153.616 78.9421 153.616 73.9107L153.616 72.7695C153.616 68.1077 152.408 63.5253 150.109 59.4694L149.306 58.0524C146.557 53.2008 142.628 49.1209 137.884 46.1905L132.816 43.06C129.692 41.1307 126.366 39.5513 122.896 38.3504L115.116 35.6572L103.105 33.1843C99.7873 32.5014 96.4092 32.1573 93.0223 32.1573L85.5209 32.1573C82.2617 32.1573 79.0132 32.5312 75.8392 33.2718L72.1016 34.1439C67.8415 35.1379 63.8863 37.151 60.5756 40.0103C56.6836 43.3718 53.8312 47.7737 52.3533 52.6995L51.6159 55.1572" stroke="#4DFF1C" stroke-width="20" stroke-linecap="round"/><line x1="84" y1="73" x2="84" y2="22" stroke="#3AB817" stroke-width="20" stroke-linecap="round"/><line x1="121" y1="177" x2="121" y2="122" stroke="#3AB817" stroke-width="20" stroke-linecap="round"/>
</g>
</svg>
